<svg id="Layer_1" data-name="Layer 1" xmlns="http://www.w3.org/2000/svg" viewBox="0 0 822.12037 862.77755">
  <g>
    <path d="M411.454,14.77808c135.76865-.24627,255.96418,85.32328,295.3716,210.44347a202.97354,202.97354,0,0,1,9.35812,47.62156c.56633,8.544-1.9529,13.06206-11.46574,12.41191-8.48788-.58-17.13984-.95243-25.54993.03139-12.45469,1.45687-17.80658-3.7572-19.01406-15.73266-4.27057-42.35512-23.54838-78.01825-50.31025-110.09816C522.17653,54.36748,360.07592,37.92807,252.17992,122.35538c-49.36541,38.62774-82.2046,86.69714-91.1256,149.52422-1.38784,9.77427-4.76311,14.38929-15.4106,13.29628-9.23532-.948-18.67392-.42478-27.98994.06821-9.08426.48064-12.36127-3.20114-11.65482-12.23,2.70816-34.612,13.55424-66.74859,30.34019-96.75368C192.65309,75.59871,296.33267,14.98687,411.454,14.77808Z" fill="teal"/>
    <path d="M410.83267,285.10269c-28.39785,0-56.80387-.393-85.18967.19108-11.54711.23764-16.02869-4.89744-17.07558-15.503-5.59088-56.63715,36.65-106.9737,93.38486-111.09008,64.08086-4.64938,114.67673,45.13609,111.23817,109.45671-.8091,15.13539-2.37687,16.77493-17.164,16.81376-28.39777.07453-56.79584.02164-85.19383.02164Z" fill="#ff6f61"/>
    <path d="M410.88325,329.047q185.21316,0,370.42647-.00833c17.78755-.00223,22.24243,4.28626,21.63772,22.50207C800.80918,415.93723,786.571,477.348,759.39025,536.02008c-19.36766,41.80642-42.07154,81.60847-70.844,117.29972C642.55905,710.36537,587.84955,757.70369,522.6475,792.16307c-30.92519,16.34427-63.14651,29.53709-96.26365,40.73119a49.152,49.152,0,0,1-33.22552-.12213c-160.68428-55.5376-274.57392-161.054-339.72049-318.36923C31.31,460.96852,21.01852,404.93146,19.77535,347.18419c-.29559-13.72961,4.17967-17.91,19.46056-17.91293q185.82366-.0356,371.64734-.01332ZM96.80931,474.99655c.67946,2.54415,1.21186,4.858,1.91468,7.11892,5.92863,19.07207,14.928,36.79913,23.80394,54.596C181.497,654.948,275.69059,732.86261,398.453,778.25367c8.52522,3.1525,16.198,2.74535,24.71189-.12644,86.045-29.02418,157.49831-79.23637,216.46737-147.87471,36.94456-43.00215,63.80506-91.72243,83.35718-144.7333,2.76037-7.48427,2.63095-10.68727-6.90345-10.67783Q406.77653,475.14721,96.80931,474.99655Z" fill="teal" stroke="#000" stroke-miterlimit="10" stroke-width="0.25"/>
    <path d="M96.80931,474.99655q310.29591,0,619.27664-.15516c9.5344-.00944,9.66382,3.19356,6.90345,10.67783-19.55212,53.01087-46.41262,101.73115-83.35718,144.7333-58.96906,68.63834-130.42241,118.85053-216.46737,147.87471-8.51384,2.87179-16.18667,3.27894-24.71189.12644-122.76237-45.39106-216.956-123.3057-275.925-241.54216-8.87592-17.79691-17.87531-35.524-23.80394-54.596C98.02117,479.85456,97.48877,477.5407,96.80931,474.99655Z" fill="none" stroke="#000" stroke-miterlimit="10" stroke-width="0.25"/>
  </g>
</svg>
